<svg width="30" height="30" viewBox="0 0 30 30" fill="none" xmlns="http://www.w3.org/2000/svg">
<g clip-path="url(#clip0_233_92)">
<path d="M20.6774 30.7192C20.6774 30.7192 24.6239 30.4904 26.5972 27.9428C28.5704 25.3951 22.6507 19 22.6507 19C22.6507 19 19.3619 21.7764 14.7578 21.5477C10.1536 21.3189 8.18021 19 8.18021 19C8.18021 19 0.944858 24.0953 3.57591 28.1716C6.20696 32.2478 20.6774 30.7192 20.6774 30.7192Z" fill="white"/>
<path d="M15.4482 17.884C20.1106 17.884 23.8902 14.1044 23.8902 9.442C23.8902 4.77961 20.1106 1 15.4482 1C10.7858 1 7.00623 4.77961 7.00623 9.442C7.00623 14.1044 10.7858 17.884 15.4482 17.884Z" fill="white"/>
</g>
<defs>
<clipPath id="clip0_233_92">
<rect width="30" height="30" fill="white"/>
</clipPath>
</defs>
</svg>
